  <svg
    id="svg-stage"
    viewBox="0 0 100 100"
    fill="none"
    xmlns="http://www.w3.org/2000/svg">
    <defs>
    <linearGradient
    id="grad"
    x1="0"
    y1="0"
    x2="99"
    y2="99"
    gradientUnits="userSpaceOnUse">
    <stop offset="0.2" stop-color="rgb(255, 135, 9)" />
    <stop offset="0.7" stop-color="rgb(247, 189, 248)" />
    </linearGradient>

    <path
    class="shape"
    id="flower"
    d="M73.8657 3.50781C86.354 3.50781 96.478 13.6348 96.478 26.127C96.478 38.6191 86.3539 48.7461 73.8657 48.7461C72.2258 48.7461 70.6272 48.569 69.0864 48.2373V52.2695C70.6271 51.9379 72.2259 51.7617 73.8657 51.7617C86.354 51.7617 96.478 61.8887 96.478 74.3809C96.478 86.873 86.3539 97 73.8657 97C61.3776 96.9999 51.2544 86.8729 51.2544 74.3809C51.2544 72.8954 51.3991 71.4436 51.6724 70.0381H47.8208C48.0941 71.4436 48.2388 72.8954 48.2388 74.3809C48.2388 86.8729 38.1155 96.9998 25.6274 97C13.1392 97 3.01515 86.873 3.01514 74.3809C3.01514 61.8887 13.1392 51.7617 25.6274 51.7617C27.1763 51.7617 28.6886 51.9181 30.1499 52.2148V48.292C28.6886 48.5888 27.1763 48.7461 25.6274 48.7461C13.1392 48.7461 3.01519 38.6191 3.01514 26.127C3.01514 13.6348 13.1392 3.50781 25.6274 3.50781C38.1155 3.50801 48.2388 13.6349 48.2388 26.127C48.2388 27.6761 48.0832 29.1888 47.7866 30.6504H51.7065C51.41 29.1888 51.2544 27.6761 51.2544 26.127C51.2544 13.6349 61.3776 3.5079 73.8657 3.50781Z"
    fill="#FF8709" />
    <path
    class="shape"
    id="windmill"
    d="M60.4859 49.3956H95.4586C95.7564 49.3956 96 49.6366 96 49.9311V94.3547C96 94.6519 95.7537 94.8956 95.4532 94.8929C70.4966 94.6064 50.3181 74.6612 50.0014 49.9846V94.4645C50.0014 94.759 49.7577 95 49.4599 95H4.54682C4.24633 95 3.99999 94.7563 4.00269 94.4591C4.29506 69.5791 24.7741 49.5027 49.9987 49.5H4.54142C4.24364 49.5 4 49.259 4 48.9645V4.54087C4 4.24366 4.24633 4 4.54682 4.00268C29.5034 4.28918 49.6819 24.2344 49.9987 48.9109V4.53551C49.9987 4.24098 50.2423 4 50.5401 4H95.4532C95.7537 4 96 4.24366 95.9973 4.54087C95.7456 25.9052 80.6076 43.7298 60.3641 48.3406C59.7387 48.4825 59.8443 49.3956 60.4886 49.3956H60.4859Z"
    fill="#0AE448" />
    <path
    class="shape"
    id="keyframe"
    fill-rule="evenodd"
    clip-rule="evenodd"
    d="M53.4913 46.1943C51.9593 47.7511 51.9593 50.249 53.4913 51.8057L89.3023 88.1943C91.7911 90.7232 89.9996 95 86.4513 95L50 95H13.5486C10.0004 95 8.20887 90.7232 10.6977 88.1943L46.5087 51.8057C48.0407 50.249 48.0407 47.7511 46.5087 46.1943L10.6977 9.80571C8.20888 7.27676 10.0004 3 13.5487 3L50 3L86.4514 3.00001C89.9996 3.00001 91.7911 7.27676 89.3023 9.80572L53.4913 46.1943Z"
    fill="#FF8709" />
    <path
    class="shape"
    id="lightning"
    fill-rule="evenodd"
    clip-rule="evenodd"
    d="M65.8426 4C67.3334 4 68.3002 5.57252 67.6272 6.90285L59.4856 22.9957C58.8126 24.326 59.7794 25.8985 61.2703 25.8985H69.3933C70.9638 25.8985 71.9215 27.6257 71.0898 28.9578L29.2278 96L41.3701 46.8644C41.6817 45.6034 40.7274 44.3846 39.4285 44.3846H30.0029C28.575 44.3846 27.6071 42.9313 28.1574 41.6137L43.356 5.22912C43.6669 4.4847 44.3947 4 45.2014 4L65.8426 4Z"
    fill="#0AE448" />
    <path
    class="shape"
    id="keyhole"
    d="M10.0509 88.3057L28.7699 51.1618C25.2984 46.5638 23.2697 40.8301 23.3513 34.624C23.541 20.0857 35.4705 8.21021 50.0986 8.00262C64.7267 7.79503 77.6501 19.9473 77.6501 34.9843C77.6501 41.0544 75.6335 46.6545 72.2291 51.1642L90.9481 88.308C91.109 88.6254 90.8762 89 90.5184 89H10.4806C10.1229 89 9.89244 88.6254 10.0509 88.308V88.3057Z"
    fill="#0AE448" />
    <path
    class="shape"
    id="union"
    d="M92.5088 9C92.7799 9.00016 93.0022 9.2209 93 9.49023C92.7532 30.5644 76.5914 47.8354 55.8965 50C76.5911 52.1646 92.7509 69.4356 93 90.5098C93.0022 90.7791 92.7799 90.9998 92.5088 91H10.4912C10.2201 90.9998 9.99781 90.7791 10 90.5098C10.2468 69.4359 26.4081 52.165 47.1025 50C26.4084 47.835 10.2491 30.564 10 9.49023C9.99781 9.2209 10.2201 9.00016 10.4912 9H92.5088Z"
    fill="#FF8709" />
    <path
    class="shape"
    id="scrolltrigger"
    d="M71.3976 63.0602H88C88 81.8024 71.4356 97 51 97C30.5644 97 14 81.8024 14 63.0602H30.6025C20.5983 56.9871 14 46.5692 14 34.7382H33.1569C21.7365 28.9599 14 17.8062 14 5H88C88 17.8062 80.2635 28.9599 68.8431 34.7382H88C88 46.5692 81.4017 56.987 71.3976 63.0573V63.0602Z"
    fill="#0AE448" />
    <path
    class="shape"
    id="star"
    d="M94.9903 43.075H65.4011L86.3097 22.1747C87.0845 21.3903 87.0845 20.1354 86.3097 19.3389L80.7647 13.8122C79.9899 13.0278 78.7065 13.0278 77.9317 13.8122L56.9263 34.809V5.00315C56.9263 3.90504 56.0183 3 54.9166 3H47.0834C45.9817 3 45.0858 3.90504 45.0858 5.00315V33.9523L24.1409 13.0157C23.354 12.2314 22.0828 12.2314 21.2958 13.0157L15.763 18.5546C14.9761 19.3389 14.9761 20.5939 15.763 21.3783L37.4706 43.0871H7.00974C5.89591 43.0871 5 43.9801 5 45.0902V52.9218C5 54.0199 5.89591 54.925 7.00974 54.925H36.8289L15.7025 76.0425C14.9155 76.8269 14.9155 78.0819 15.7025 78.8662L21.2353 84.405C22.0222 85.2015 23.2935 85.2015 24.0804 84.405L45.0858 63.4082V92.9969C45.0858 94.095 45.9817 95 47.0834 95H54.9166C56.0183 95 56.9263 94.095 56.9263 92.9969V62.5394L77.9801 83.5845C78.7671 84.3809 80.0383 84.3809 80.8252 83.5845L86.3581 78.0577C87.145 77.2734 87.145 76.0063 86.3581 75.2219L66.0428 54.9129H94.9903C96.1041 54.9129 97 54.0079 97 52.9098V45.0782C97 43.968 96.1041 43.075 94.9903 43.075ZM56.1999 53.1632L56.1152 53.1028H56.1636V53.0666L56.2362 53.139L56.1636 53.1028L56.1999 53.1632Z"
    fill="#FF8709" />
    <path
    class="shape"
    id="bang"
    d="M33.8065 67.4831L19.1846 97.1468C18.9078 97.7073 19.5751 98.256 20.0646 97.8716L50.4796 73.9563C50.7739 73.7245 51.2052 73.8272 51.3654 74.1676L58.688 89.8226C58.9123 90.3009 59.6029 90.2598 59.769 89.758L67.2635 67.1163C67.4004 66.7025 67.922 66.5793 68.228 66.8874L89.7789 88.5901C90.2452 89.0596 91.0086 88.508 90.7114 87.9123L76.4422 59.1729C76.209 58.7063 76.6549 58.1869 77.1474 58.3542L98.2292 65.4319C98.8119 65.6285 99.2607 64.8979 98.8265 64.4606L76.4801 41.9568C76.1741 41.6487 76.2965 41.1234 76.7074 40.9855L97.1627 34.119C97.7892 33.9077 97.6406 32.9746 96.9792 32.9746H76.9026C76.4364 32.9746 76.1596 32.4523 76.4189 32.062L91.1018 9.88094C91.434 9.37916 90.892 8.76 90.3559 9.02996L59.9089 24.3592C59.5913 24.5177 59.2067 24.3592 59.096 24.0188L51.6102 1.40054C51.4324 0.866485 50.6807 0.866485 50.5059 1.40054L43.1046 23.7606C42.9676 24.1744 42.446 24.2976 42.1401 23.9895L27.8389 9.5875C27.4164 9.16201 26.7112 9.57283 26.8627 10.1538L32.4661 31.2609C32.5972 31.7539 32.0873 32.1676 31.6356 31.9358L4.85423 18.0679C4.26271 17.7627 3.70621 18.5315 4.17534 19.004L25.633 40.6128C25.939 40.9209 25.8166 41.4462 25.4058 41.5841L4.95041 48.4506C4.32393 48.6619 4.4725 49.595 5.13395 49.595H26.0031C26.4752 49.595 26.7519 50.1291 26.481 50.5193L10.8072 73.0701C10.4838 73.5338 10.9355 74.1441 11.4687 73.9622L33.0983 66.6673C33.5908 66.5 34.0367 67.0165 33.8065 67.486V67.4831Z"
    fill="#0AE448" />
    <path
    class="shape"
    id="leaf"
    d="M90.5126 8.18339C90.7804 8.18098 91 8.40055 91 8.66837V49.1821C90.9011 71.771 72.5376 90.0458 49.9131 89.9999C27.2405 89.9541 9 71.2836 9 48.6079V8.485C9 8.21717 9.21956 7.99761 9.48737 8.00002C31.9067 8.2606 50 26.516 50 48.9988C50.0989 26.6005 68.1536 8.44398 90.5126 8.18339Z"
    fill="#FF8709" />
    <path
    class="shape"
    id="join"
    d="M38.8477 4C56.9892 4 71.6963 18.746 71.6963 36.9355C71.6963 37.126 71.6927 37.3161 71.6895 37.5059H96V95H38.6582V69.8672C20.6042 69.7647 6.00023 55.0614 6 36.9355C6 18.7461 20.7064 4.00026 38.8477 4Z"
    fill="#0AE448" />
    <path
    class="shape"
    id="horizontal"
    d="M93 49.5C93 74.0764 86.9566 94 79.502 94C75.5999 94 72.0863 88.5391 69.6238 79.8075C67.1588 88.5391 63.6451 94 59.743 94C55.3904 94 51.5168 87.2038 49.0518 76.6536C46.5842 87.2038 42.7106 94 38.358 94C34.43 94 30.893 88.469 28.428 79.6386C25.9604 88.469 22.426 94 18.498 94C11.0434 94 5 74.0764 5 49.5C5 24.9235 11.0434 5 18.498 5C22.426 5 25.9604 10.531 28.428 19.3614C30.893 10.531 34.43 5 38.358 5C42.7106 5 46.5842 11.7936 49.0518 22.3438C51.5168 11.7936 55.3904 5 59.743 5C63.6451 5 67.1614 10.4609 69.6238 19.1925C72.0837 10.4609 75.5999 5 79.502 5C86.9566 5 93 24.9209 93 49.5Z"
    fill="#FF8709" />
    <path
    class="shape"
    id="chess"
    d="M35.4561 64.999C35.7483 64.999 35.9851 65.236 35.9854 65.5283V94.4707C35.9852 94.763 35.7483 95 35.4561 95H6.5293C6.23709 95 6.0002 94.763 6 94.4707V65.5283C6.00021 65.236 6.2371 64.9991 6.5293 64.999H35.4561ZM95.4707 5C95.7617 5.00003 95.9998 5.23817 96 5.5293V34.4717C95.9998 34.7628 95.7617 35.0009 95.4707 35.001H66.5469C66.2558 35.001 66.0177 35.2391 66.0176 35.5303V64.4697C66.0177 64.7609 66.2558 64.999 66.5469 64.999H95.4707C95.7617 64.9991 95.9998 65.2372 96 65.5283V94.4707C95.9998 94.7618 95.7617 95 95.4707 95H66.5439C66.2529 95 66.0148 94.7618 66.0146 94.4707V65.5283C66.0144 65.2373 65.7762 64.9992 65.4854 64.999H36.5605C36.2696 64.9988 36.0314 64.7608 36.0312 64.4697V35.5303C36.0314 35.2392 36.2696 35.0012 36.5605 35.001H65.4854C65.7762 35.0008 66.0144 34.7627 66.0146 34.4717V5.5293C66.0148 5.23815 66.2529 5 66.5439 5H95.4707ZM35.501 5C35.7932 5 36.0301 5.23694 36.0303 5.5293V34.4717C36.03 34.764 35.7932 35.001 35.501 35.001H6.57422C6.28206 35.0009 6.04515 34.7639 6.04492 34.4717V5.5293C6.0451 5.23699 6.28203 5.00007 6.57422 5H35.501Z"
    fill="#0AE448" />
    </defs>

    <path
    class="shape"
    id="morph"
    d="M97 65.5C97 69.9183 93.4183 73.5 89 73.5L50.6065 73.5C50.2703 73.5 49.9965 73.7703 49.9922 74.1064C49.6705 86.8049 39.2759 97 26.5 97C13.5213 97 3 86.4787 3 73.5C3 63.2737 9.53201 54.573 18.6514 51.3426C22.8161 49.8673 26.5 46.4183 26.5 42L26.5 11C26.5 6.58172 30.0817 3 34.5 3L89 3C93.4183 3 97 6.58172 97 11L97 65.5Z"
    fill="#0AE448" />
</svg>